<?xml version="1.0" encoding="UTF-8" standalone="no" ?>
<!DOCTYPE svg PUBLIC "-//W3C//DTD SVG 1.1//EN" "http://www.w3.org/Graphics/SVG/1.1/DTD/svg11.dtd">
<svg xmlns="http://www.w3.org/2000/svg" xmlns:xlink="http://www.w3.org/1999/xlink" version="1.1" width="500" height="162.46207262313115" viewBox="0 167.81896368843445 500 162.46207262313115" xml:space="preserve">
<desc>Created with Fabric.js 4.6.0</desc>
<defs>
</defs>
<g transform="matrix(2 0 0 2 250 249.05)" id="pD1O0lA_kLFNwYkX2czGr"  >
<path style="stroke: rgb(0,0,0); stroke-width: 0; stroke-dasharray: none; stroke-linecap: butt; stroke-dashoffset: 0; stroke-linejoin: miter; stroke-miterlimit: 4; fill: rgb(30,28,37); fill-rule: nonzero; opacity: 1;" vector-effect="non-scaling-stroke"  transform=" translate(0, 0)" d="M -43.67641 -32.19789 C -14.643219999999996 -43.32337 17.460460000000005 -43.42373 46.562630000000006 -32.47997 L 49.86943000000001 -31.23646 C 59.99401000000001 -27.42915 69.20631 -21.53834 76.91009000000001 -13.94529 C 89.00927000000001 -2.020009999999999 105.31526000000001 4.6651099999999985 122.30356 4.6651099999999985 L 125 4.6651099999999985 L 125 40.61552 L -125 40.61552 L -125 4.6651099999999985 L -123.27773 4.6651099999999985 C -105.72579 4.6651099999999985 -88.76103 -1.6566000000000018 -75.48925 -13.142690000000002 C -66.07164 -21.293170000000003 -55.306529999999995 -27.74124 -43.6764 -32.19789 z M 26.0772 -17.79805 C 25.87649 -18.21522 25.45233 -18.48006 24.9865 -18.48006 C 24.52448 -18.48006 24.10036 -18.21524 23.89962 -17.798050000000003 L 21.460739999999998 -12.786550000000004 L 16.023179999999996 -11.983650000000004 C 15.569109999999997 -11.919270000000004 15.191549999999996 -11.601160000000004 15.048769999999996 -11.165630000000004 C 14.905609999999996 -10.726350000000004 15.021509999999996 -10.249130000000005 15.347569999999996 -9.923450000000004 L 19.294509999999995 -6.053010000000004 L 18.362879999999997 -0.5011000000000037 C 18.283379999999998 -0.04666000000000364 18.472719999999995 0.4153599999999964 18.847649999999998 0.6842699999999964 C 19.222579999999997 0.9531299999999964 19.718709999999998 0.9871999999999963 20.127709999999997 0.7713499999999964 L 24.986579999999996 -1.8228500000000034 L 29.849219999999995 0.7713499999999964 C 30.254459999999995 0.9872399999999965 30.750549999999997 0.9531799999999964 31.125479999999996 0.6842699999999964 C 31.504189999999998 0.4153699999999964 31.689769999999996 -0.04665000000000363 31.614019999999996 -0.5011000000000037 L 30.682389999999998 -6.053010000000004 L 34.628569999999996 -9.923450000000004 C 34.95428999999999 -10.249160000000005 35.07167999999999 -10.726350000000004 34.927769999999995 -11.165630000000004 C 34.78386999999999 -11.601140000000004 34.405139999999996 -11.919260000000003 33.95448999999999 -11.983650000000004 L 28.512399999999992 -12.786550000000004 z M 4.22168 -24.27653 C 4.02097 -24.6937 3.59681 -24.95854 3.13098 -24.95854 C 2.66896 -24.95854 2.24484 -24.69372 2.0441000000000003 -24.27653 L -0.3947799999999999 -19.265030000000003 L -5.83234 -18.462130000000002 C -6.28641 -18.397750000000002 -6.66397 -18.07964 -6.80675 -17.64411 C -6.94991 -17.20483 -6.83401 -16.727610000000002 -6.50795 -16.40193 L -2.56101 -12.53149 L -3.4926399999999997 -6.9795799999999995 C -3.5721399999999996 -6.5251399999999995 -3.3827999999999996 -6.06312 -3.0078699999999996 -5.79421 C -2.6329399999999996 -5.5253499999999995 -2.1368099999999997 -5.49128 -1.7278099999999996 -5.707129999999999 L 3.1310599999999997 -8.30133 L 7.9937 -5.70713 C 8.39894 -5.49124 8.89503 -5.5253000000000005 9.26996 -5.7942100000000005 C 9.64867 -6.063110000000001 9.834249999999999 -6.525130000000001 9.7585 -6.97958 L 8.82687 -12.531490000000002 L 12.77305 -16.40193 C 13.09877 -16.72764 13.21616 -17.20483 13.07225 -17.64411 C 12.92835 -18.079620000000002 12.54962 -18.397740000000002 12.09897 -18.462130000000002 L 6.656879999999999 -19.265030000000003 z M 48.01669 -9.9829 C 47.815979999999996 -10.400070000000001 47.391819999999996 -10.66491 46.92599 -10.66491 C 46.463969999999996 -10.66491 46.03985 -10.40009 45.83911 -9.9829 L 43.40023 -4.971400000000001 L 37.96267 -4.168500000000001 C 37.5086 -4.104120000000001 37.131040000000006 -3.786010000000001 36.988260000000004 -3.350480000000001 C 36.8451 -2.911200000000001 36.961000000000006 -2.433980000000001 37.287060000000004 -2.1083000000000007 L 41.234 1.7621399999999992 L 40.30237 7.31405 C 40.22287 7.76849 40.41221 8.23051 40.78714 8.49942 C 41.16207 8.76828 41.6582 8.80235 42.0672 8.586500000000001 L 46.926069999999996 5.992300000000001 L 51.788709999999995 8.586500000000001 C 52.193949999999994 8.80239 52.690039999999996 8.76833 53.064969999999995 8.49942 C 53.44367999999999 8.23052 53.629259999999995 7.7685 53.553509999999996 7.314050000000001 L 52.62188 1.7621400000000005 L 56.568059999999996 -2.1082999999999994 C 56.89377999999999 -2.4340099999999993 57.01116999999999 -2.911199999999999 56.867259999999995 -3.3504799999999992 C 56.72335999999999 -3.785989999999999 56.344629999999995 -4.1041099999999995 55.89397999999999 -4.168499999999999 L 50.45188999999999 -4.971399999999999 z M -18.02209 -17.79806 C -18.2228 -18.21523 -18.64696 -18.480069999999998 -19.112789999999997 -18.480069999999998 C -19.574809999999996 -18.480069999999998 -19.998929999999998 -18.215249999999997 -20.199669999999998 -17.79806 L -22.63855 -12.78656 L -28.07611 -11.98366 C -28.53018 -11.91928 -28.90774 -11.60117 -29.05052 -11.16564 C -29.19368 -10.72636 -29.077779999999997 -10.24914 -28.75172 -9.92346 L -24.804779999999997 -6.05302 L -25.736409999999996 -0.5011099999999997 C -25.815909999999995 -0.04666999999999971 -25.626569999999997 0.41535000000000033 -25.251639999999995 0.6842600000000003 C -24.876709999999996 0.9531200000000003 -24.380579999999995 0.9871900000000002 -23.971579999999996 0.7713400000000004 L -19.112709999999996 -1.8228599999999995 L -14.250069999999997 0.7713400000000004 C -13.844829999999998 0.9872300000000004 -13.348739999999998 0.9531700000000003 -12.973809999999997 0.6842600000000003 C -12.595099999999997 0.41536000000000034 -12.409519999999997 -0.0466599999999997 -12.485269999999996 -0.5011099999999997 L -13.416899999999996 -6.05302 L -9.470719999999996 -9.92346 C -9.144999999999996 -10.249170000000001 -9.027609999999996 -10.72636 -9.171519999999996 -11.16564 C -9.315419999999996 -11.60115 -9.694149999999995 -11.91927 -10.144799999999996 -11.98366 L -15.586889999999997 -12.78656 z M -40.15505 -9.9829 C -40.355760000000004 -10.400070000000001 -40.779920000000004 -10.66491 -41.24575 -10.66491 C -41.707770000000004 -10.66491 -42.13189 -10.40009 -42.33263 -9.9829 L -44.77151 -4.971400000000001 L -50.20907 -4.168500000000001 C -50.66314 -4.104120000000001 -51.040699999999994 -3.786010000000001 -51.183479999999996 -3.350480000000001 C -51.32664 -2.911200000000001 -51.210739999999994 -2.433980000000001 -50.884679999999996 -2.1083000000000007 L -46.93774 1.7621399999999992 L -47.869369999999996 7.31405 C -47.94887 7.76849 -47.75953 8.23051 -47.3846 8.49942 C -47.00967 8.76828 -46.51354 8.80235 -46.10454 8.586500000000001 L -41.245670000000004 5.992300000000001 L -36.383030000000005 8.586500000000001 C -35.977790000000006 8.80239 -35.481700000000004 8.76833 -35.106770000000004 8.49942 C -34.728060000000006 8.23052 -34.542480000000005 7.7685 -34.618230000000004 7.314050000000001 L -35.54986 1.7621400000000005 L -31.603680000000004 -2.1082999999999994 C -31.277960000000004 -2.4340099999999993 -31.160570000000003 -2.911199999999999 -31.304480000000005 -3.3504799999999992 C -31.448380000000004 -3.785989999999999 -31.827110000000005 -4.1041099999999995 -32.27776000000001 -4.168499999999999 L -37.71985000000001 -4.971399999999999 z" stroke-linecap="round" />
</g>
</svg>