<?xml version="1.0" encoding="UTF-8" standalone="no" ?>
<!DOCTYPE svg PUBLIC "-//W3C//DTD SVG 1.1//EN" "http://www.w3.org/Graphics/SVG/1.1/DTD/svg11.dtd">
<svg xmlns="http://www.w3.org/2000/svg" xmlns:xlink="http://www.w3.org/1999/xlink" version="1.1" width="500" height="500" viewBox="0 0 500 500" xml:space="preserve">
<desc>Created with Fabric.js 4.6.0</desc>
<defs>
</defs>
<g transform="matrix(1 0 0 1 235.28 222.55)" id="LTdS-Jz7AwEvwCNLm94Ha"  >
<g style="" vector-effect="non-scaling-stroke"   >
		<g transform="matrix(1 0 0 1 22.15 -0.67)" id="8WxECOTbp8Djt3sikxnnw"  >
<path style="stroke: none; stroke-width: 1; stroke-dasharray: none; stroke-linecap: butt; stroke-dashoffset: 0; stroke-linejoin: miter; stroke-miterlimit: 4; fill: rgb(0,0,0); fill-rule: nonzero; opacity: 1;" vector-effect="non-scaling-stroke"  transform=" translate(-10, -9.7)" d="M 13.52402 5.69351 L 18.96611 6.49641 C 19.41676 6.5608 19.79549 6.87892 19.93939 7.31443 C 20.0833 7.75371 19.96591 8.2309 19.64019 8.55661 L 15.69401 12.42705 L 16.62564 17.97896 C 16.70139 18.433410000000002 16.515810000000002 18.89543 16.1371 19.16433 C 15.762170000000001 19.433239999999998 15.26608 19.467299999999998 14.86084 19.25141 L 9.9982 16.65721 L 5.139330000000001 19.25141 C 4.730330000000001 19.46726 4.234200000000001 19.43319 3.8592700000000013 19.16433 C 3.4843400000000013 18.89542 3.2950000000000013 18.4334 3.374500000000001 17.97896 L 4.306130000000001 12.427050000000001 L 0.35919000000000123 8.556610000000001 C 0.033130000000001214 8.23093 -0.08276999999999879 7.753710000000001 0.06039000000000122 7.314430000000001 C 0.2031700000000012 6.878900000000001 0.5807300000000013 6.560790000000001 1.0348000000000013 6.496410000000001 L 6.472360000000002 5.693510000000001 L 8.911240000000003 0.6820100000000009 C 9.111980000000003 0.2648200000000009 9.536100000000003 8.881784197001252e-16 9.998120000000004 8.881784197001252e-16 C 10.463950000000004 8.881784197001252e-16 10.888110000000003 0.2648400000000009 11.088820000000004 0.6820100000000009 z" stroke-linecap="round" />
</g>
		<g transform="matrix(1 0 0 1 0.29 -7.15)" id="Zv-N35wM_Mq-y3Zb65pF9"  >
<path style="stroke: none; stroke-width: 1; stroke-dasharray: none; stroke-linecap: butt; stroke-dashoffset: 0; stroke-linejoin: miter; stroke-miterlimit: 4; fill: rgb(0,0,0); fill-rule: nonzero; opacity: 1;" vector-effect="non-scaling-stroke"  transform=" translate(-10, -9.7)" d="M 13.52402 5.69351 L 18.96611 6.49641 C 19.41676 6.5608 19.79549 6.87892 19.93939 7.31443 C 20.0833 7.75371 19.96591 8.2309 19.64019 8.55661 L 15.69401 12.42705 L 16.62564 17.97896 C 16.70139 18.433410000000002 16.515810000000002 18.89543 16.1371 19.16433 C 15.762170000000001 19.433239999999998 15.26608 19.467299999999998 14.86084 19.25141 L 9.9982 16.65721 L 5.139330000000001 19.25141 C 4.730330000000001 19.46726 4.234200000000001 19.43319 3.8592700000000013 19.16433 C 3.4843400000000013 18.89542 3.2950000000000013 18.4334 3.374500000000001 17.97896 L 4.306130000000001 12.427050000000001 L 0.35919000000000123 8.556610000000001 C 0.033130000000001214 8.23093 -0.08276999999999879 7.753710000000001 0.06039000000000122 7.314430000000001 C 0.2031700000000012 6.878900000000001 0.5807300000000013 6.560790000000001 1.0348000000000013 6.496410000000001 L 6.472360000000002 5.693510000000001 L 8.911240000000003 0.6820100000000009 C 9.111980000000003 0.2648200000000009 9.536100000000003 8.881784197001252e-16 9.998120000000004 8.881784197001252e-16 C 10.463950000000004 8.881784197001252e-16 10.888110000000003 0.2648400000000009 11.088820000000004 0.6820100000000009 z" stroke-linecap="round" />
</g>
		<g transform="matrix(1 0 0 1 44.09 7.15)" id="l1QymBBx8F018v2H5hF5r"  >
<path style="stroke: none; stroke-width: 1; stroke-dasharray: none; stroke-linecap: butt; stroke-dashoffset: 0; stroke-linejoin: miter; stroke-miterlimit: 4; fill: rgb(0,0,0); fill-rule: nonzero; opacity: 1;" vector-effect="non-scaling-stroke"  transform=" translate(-10, -9.7)" d="M 13.52402 5.69351 L 18.96611 6.49641 C 19.41676 6.5608 19.79549 6.87892 19.93939 7.31443 C 20.0833 7.75371 19.96591 8.2309 19.64019 8.55661 L 15.69401 12.42705 L 16.62564 17.97896 C 16.70139 18.433410000000002 16.515810000000002 18.89543 16.1371 19.16433 C 15.762170000000001 19.433239999999998 15.26608 19.467299999999998 14.86084 19.25141 L 9.9982 16.65721 L 5.139330000000001 19.25141 C 4.730330000000001 19.46726 4.234200000000001 19.43319 3.8592700000000013 19.16433 C 3.4843400000000013 18.89542 3.2950000000000013 18.4334 3.374500000000001 17.97896 L 4.306130000000001 12.427050000000001 L 0.35919000000000123 8.556610000000001 C 0.033130000000001214 8.23093 -0.08276999999999879 7.753710000000001 0.06039000000000122 7.314430000000001 C 0.2031700000000012 6.878900000000001 0.5807300000000013 6.560790000000001 1.0348000000000013 6.496410000000001 L 6.472360000000002 5.693510000000001 L 8.911240000000003 0.6820100000000009 C 9.111980000000003 0.2648200000000009 9.536100000000003 8.881784197001252e-16 9.998120000000004 8.881784197001252e-16 C 10.463950000000004 8.881784197001252e-16 10.888110000000003 0.2648400000000009 11.088820000000004 0.6820100000000009 z" stroke-linecap="round" />
</g>
		<g transform="matrix(1 0 0 1 -21.95 -0.67)" id="T826gxvX23BrPyMJHiv9E"  >
<path style="stroke: none; stroke-width: 1; stroke-dasharray: none; stroke-linecap: butt; stroke-dashoffset: 0; stroke-linejoin: miter; stroke-miterlimit: 4; fill: rgb(0,0,0); fill-rule: nonzero; opacity: 1;" vector-effect="non-scaling-stroke"  transform=" translate(-10, -9.7)" d="M 13.52402 5.69351 L 18.96611 6.49641 C 19.41676 6.5608 19.79549 6.87892 19.93939 7.31443 C 20.0833 7.75371 19.96591 8.2309 19.64019 8.55661 L 15.69401 12.42705 L 16.62564 17.97896 C 16.70139 18.433410000000002 16.515810000000002 18.89543 16.1371 19.16433 C 15.762170000000001 19.433239999999998 15.26608 19.467299999999998 14.86084 19.25141 L 9.9982 16.65721 L 5.139330000000001 19.25141 C 4.730330000000001 19.46726 4.234200000000001 19.43319 3.8592700000000013 19.16433 C 3.4843400000000013 18.89542 3.2950000000000013 18.4334 3.374500000000001 17.97896 L 4.306130000000001 12.427050000000001 L 0.35919000000000123 8.556610000000001 C 0.033130000000001214 8.23093 -0.08276999999999879 7.753710000000001 0.06039000000000122 7.314430000000001 C 0.2031700000000012 6.878900000000001 0.5807300000000013 6.560790000000001 1.0348000000000013 6.496410000000001 L 6.472360000000002 5.693510000000001 L 8.911240000000003 0.6820100000000009 C 9.111980000000003 0.2648200000000009 9.536100000000003 8.881784197001252e-16 9.998120000000004 8.881784197001252e-16 C 10.463950000000004 8.881784197001252e-16 10.888110000000003 0.2648400000000009 11.088820000000004 0.6820100000000009 z" stroke-linecap="round" />
</g>
		<g transform="matrix(1 0 0 1 -44.09 7.15)" id="ZjhKp73BeJ4eHZ69W_hwS"  >
<path style="stroke: none; stroke-width: 1; stroke-dasharray: none; stroke-linecap: butt; stroke-dashoffset: 0; stroke-linejoin: miter; stroke-miterlimit: 4; fill: rgb(0,0,0); fill-rule: nonzero; opacity: 1;" vector-effect="non-scaling-stroke"  transform=" translate(-10, -9.7)" d="M 13.52402 5.69351 L 18.96611 6.49641 C 19.41676 6.5608 19.79549 6.87892 19.93939 7.31443 C 20.0833 7.75371 19.96591 8.2309 19.64019 8.55661 L 15.69401 12.42705 L 16.62564 17.97896 C 16.70139 18.433410000000002 16.515810000000002 18.89543 16.1371 19.16433 C 15.762170000000001 19.433239999999998 15.26608 19.467299999999998 14.86084 19.25141 L 9.9982 16.65721 L 5.139330000000001 19.25141 C 4.730330000000001 19.46726 4.234200000000001 19.43319 3.8592700000000013 19.16433 C 3.4843400000000013 18.89542 3.2950000000000013 18.4334 3.374500000000001 17.97896 L 4.306130000000001 12.427050000000001 L 0.35919000000000123 8.556610000000001 C 0.033130000000001214 8.23093 -0.08276999999999879 7.753710000000001 0.06039000000000122 7.314430000000001 C 0.2031700000000012 6.878900000000001 0.5807300000000013 6.560790000000001 1.0348000000000013 6.496410000000001 L 6.472360000000002 5.693510000000001 L 8.911240000000003 0.6820100000000009 C 9.111980000000003 0.2648200000000009 9.536100000000003 8.881784197001252e-16 9.998120000000004 8.881784197001252e-16 C 10.463950000000004 8.881784197001252e-16 10.888110000000003 0.2648400000000009 11.088820000000004 0.6820100000000009 z" stroke-linecap="round" />
</g>
</g>
</g>
<g transform="matrix(1 0 0 1 232.44 229.67)" id="YDJtqtHXnhyLc8xRhVTiM"  >
<path style="stroke: rgb(0,0,0); stroke-width: 1; stroke-dasharray: none; stroke-linecap: butt; stroke-dashoffset: 0; stroke-linejoin: miter; stroke-miterlimit: 4; fill: rgb(255,255,255); fill-opacity: 0; fill-rule: nonzero; opacity: 1;" vector-effect="non-scaling-stroke"  transform=" translate(0, 0)" d="M -43.75362 -31.39576 C -54.927189999999996 -26.88928 -65.32602 -20.6606 -74.57211 -12.936160000000001 L -75.48925 -12.142420000000001 L -75.48925 -12.142420000000001 C -88.76103 -0.6563300000000005 -105.72579 5.665379999999999 -123.27772999999999 5.665379999999999 L -124.99999999999999 5.665379999999999 L -124.99999999999999 41.61579 L 125.00000000000001 41.61579 L 125.00000000000001 5.665379999999999 L 122.30356000000002 5.665379999999999 L 122.30356000000002 5.665379999999999 C 105.31526000000002 5.665379999999999 89.00927000000001 -1.0197400000000014 76.91009000000003 -12.94502 L 76.91009000000003 -12.94502 L 76.91009000000003 -12.94502 C 69.33829000000003 -20.33619 60.391530000000024 -26.17201 50.57551000000002 -30.1226 L 36.38745000000002 -35.414139999999996 L 36.38745000000002 -35.414139999999996 C 14.034180000000024 -43.65241999999999 -10.518489999999979 -43.683859999999996 -32.89277999999998 -35.50284 z" stroke-linecap="round" />
</g>
</svg>